<?xml version="1.0" encoding="UTF-8" standalone="no"?>
<!DOCTYPE svg PUBLIC "-//W3C//DTD SVG 1.1//EN"
 "http://www.w3.org/Graphics/SVG/1.1/DTD/svg11.dtd">
<!-- Generated by graphviz version 8.1.0 (20230707.0739)
 -->
<!-- Title: G Pages: 1 -->
<svg width="338pt" height="1772pt"
 viewBox="0.00 0.00 337.50 1772.00" xmlns="http://www.w3.org/2000/svg" xmlns:xlink="http://www.w3.org/1999/xlink">
<g id="graph0" class="graph" transform="scale(1 1) rotate(0) translate(4 1768)">
<title>G</title>
<polygon fill="white" stroke="none" points="-4,4 -4,-1768 333.5,-1768 333.5,4 -4,4"/>
<!-- Start -->
<g id="node1" class="node">
<title>Start</title>
<polygon fill="none" stroke="black" points="191.75,-1764 137.75,-1764 137.75,-1728 191.75,-1728 191.75,-1764"/>
<text text-anchor="middle" x="164.75" y="-1740.58" font-family="Times New Roman,serif" font-size="14.00">Start</text>
</g>
<!-- Section1 -->
<g id="node2" class="node">
<title>Section1</title>
<polygon fill="none" stroke="black" points="248.5,-1692 81,-1692 81,-1656 248.5,-1656 248.5,-1692"/>
<text text-anchor="middle" x="164.75" y="-1668.58" font-family="Times New Roman,serif" font-size="14.00">Split the code using /inflect</text>
</g>
<!-- Start&#45;&gt;Section1 -->
<g id="edge1" class="edge">
<title>Start&#45;&gt;Section1</title>
<path fill="none" stroke="black" d="M164.75,-1727.7C164.75,-1720.24 164.75,-1711.32 164.75,-1702.97"/>
<polygon fill="black" stroke="black" points="168.25,-1703.1 164.75,-1693.1 161.25,-1703.1 168.25,-1703.1"/>
</g>
<!-- RateOfEvolution1 -->
<g id="node3" class="node">
<title>RateOfEvolution1</title>
<polygon fill="none" stroke="black" points="245.5,-1620 84,-1620 84,-1584 245.5,-1584 245.5,-1620"/>
<text text-anchor="middle" x="164.75" y="-1596.58" font-family="Times New Roman,serif" font-size="14.00">Calculate rate of evolution</text>
</g>
<!-- Section1&#45;&gt;RateOfEvolution1 -->
<g id="edge2" class="edge">
<title>Section1&#45;&gt;RateOfEvolution1</title>
<path fill="none" stroke="black" d="M164.75,-1655.7C164.75,-1648.24 164.75,-1639.32 164.75,-1630.97"/>
<polygon fill="black" stroke="black" points="168.25,-1631.1 164.75,-1621.1 161.25,-1631.1 168.25,-1631.1"/>
</g>
<!-- Section2 -->
<g id="node4" class="node">
<title>Section2</title>
<polygon fill="none" stroke="black" points="295.75,-1548 33.75,-1548 33.75,-1512 295.75,-1512 295.75,-1548"/>
<text text-anchor="middle" x="164.75" y="-1524.58" font-family="Times New Roman,serif" font-size="14.00">Create linear function using rate of evolution</text>
</g>
<!-- RateOfEvolution1&#45;&gt;Section2 -->
<g id="edge3" class="edge">
<title>RateOfEvolution1&#45;&gt;Section2</title>
<path fill="none" stroke="black" d="M164.75,-1583.7C164.75,-1576.24 164.75,-1567.32 164.75,-1558.97"/>
<polygon fill="black" stroke="black" points="168.25,-1559.1 164.75,-1549.1 161.25,-1559.1 168.25,-1559.1"/>
</g>
<!-- Section3 -->
<g id="node5" class="node">
<title>Section3</title>
<polygon fill="none" stroke="black" points="307,-1476 22.5,-1476 22.5,-1440 307,-1440 307,-1476"/>
<text text-anchor="middle" x="164.75" y="-1452.58" font-family="Times New Roman,serif" font-size="14.00">Create quadratic function using rate of evolution</text>
</g>
<!-- Section2&#45;&gt;Section3 -->
<g id="edge4" class="edge">
<title>Section2&#45;&gt;Section3</title>
<path fill="none" stroke="black" d="M164.75,-1511.7C164.75,-1504.24 164.75,-1495.32 164.75,-1486.97"/>
<polygon fill="black" stroke="black" points="168.25,-1487.1 164.75,-1477.1 161.25,-1487.1 168.25,-1487.1"/>
</g>
<!-- Section4 -->
<g id="node6" class="node">
<title>Section4</title>
<polygon fill="none" stroke="black" points="229.75,-1404 99.75,-1404 99.75,-1368 229.75,-1368 229.75,-1404"/>
<text text-anchor="middle" x="164.75" y="-1380.58" font-family="Times New Roman,serif" font-size="14.00">Calculate derivatives</text>
</g>
<!-- Section3&#45;&gt;Section4 -->
<g id="edge5" class="edge">
<title>Section3&#45;&gt;Section4</title>
<path fill="none" stroke="black" d="M164.75,-1439.7C164.75,-1432.24 164.75,-1423.32 164.75,-1414.97"/>
<polygon fill="black" stroke="black" points="168.25,-1415.1 164.75,-1405.1 161.25,-1415.1 168.25,-1415.1"/>
</g>
<!-- Section5 -->
<g id="node7" class="node">
<title>Section5</title>
<polygon fill="none" stroke="black" points="318.25,-1332 11.25,-1332 11.25,-1296 318.25,-1296 318.25,-1332"/>
<text text-anchor="middle" x="164.75" y="-1308.58" font-family="Times New Roman,serif" font-size="14.00">Create trigonometric function using rate of evolution</text>
</g>
<!-- Section4&#45;&gt;Section5 -->
<g id="edge6" class="edge">
<title>Section4&#45;&gt;Section5</title>
<path fill="none" stroke="black" d="M164.75,-1367.7C164.75,-1360.24 164.75,-1351.32 164.75,-1342.97"/>
<polygon fill="black" stroke="black" points="168.25,-1343.1 164.75,-1333.1 161.25,-1343.1 168.25,-1343.1"/>
</g>
<!-- MinMax -->
<g id="node8" class="node">
<title>MinMax</title>
<polygon fill="none" stroke="black" points="235.75,-1260 93.75,-1260 93.75,-1224 235.75,-1224 235.75,-1260"/>
<text text-anchor="middle" x="164.75" y="-1236.58" font-family="Times New Roman,serif" font-size="14.00">Calculate min and max</text>
</g>
<!-- Section5&#45;&gt;MinMax -->
<g id="edge7" class="edge">
<title>Section5&#45;&gt;MinMax</title>
<path fill="none" stroke="black" d="M164.75,-1295.7C164.75,-1288.24 164.75,-1279.32 164.75,-1270.97"/>
<polygon fill="black" stroke="black" points="168.25,-1271.1 164.75,-1261.1 161.25,-1271.1 168.25,-1271.1"/>
</g>
<!-- Frequency -->
<g id="node9" class="node">
<title>Frequency</title>
<polygon fill="none" stroke="black" points="227.88,-1188 101.62,-1188 101.62,-1152 227.88,-1152 227.88,-1188"/>
<text text-anchor="middle" x="164.75" y="-1164.58" font-family="Times New Roman,serif" font-size="14.00">Calculate frequency</text>
</g>
<!-- MinMax&#45;&gt;Frequency -->
<g id="edge8" class="edge">
<title>MinMax&#45;&gt;Frequency</title>
<path fill="none" stroke="black" d="M164.75,-1223.7C164.75,-1216.24 164.75,-1207.32 164.75,-1198.97"/>
<polygon fill="black" stroke="black" points="168.25,-1199.1 164.75,-1189.1 161.25,-1199.1 168.25,-1199.1"/>
</g>
<!-- RelevanceToPopulation -->
<g id="node10" class="node">
<title>RelevanceToPopulation</title>
<polygon fill="none" stroke="black" points="265,-1116 64.5,-1116 64.5,-1080 265,-1080 265,-1116"/>
<text text-anchor="middle" x="164.75" y="-1092.58" font-family="Times New Roman,serif" font-size="14.00">Explain relevance to a population</text>
</g>
<!-- Frequency&#45;&gt;RelevanceToPopulation -->
<g id="edge9" class="edge">
<title>Frequency&#45;&gt;RelevanceToPopulation</title>
<path fill="none" stroke="black" d="M164.75,-1151.7C164.75,-1144.24 164.75,-1135.32 164.75,-1126.97"/>
<polygon fill="black" stroke="black" points="168.25,-1127.1 164.75,-1117.1 161.25,-1127.1 168.25,-1127.1"/>
</g>
<!-- ToThePowerOf3 -->
<g id="node11" class="node">
<title>ToThePowerOf3</title>
<polygon fill="none" stroke="black" points="329.5,-1044 0,-1044 0,-1008 329.5,-1008 329.5,-1044"/>
<text text-anchor="middle" x="164.75" y="-1020.58" font-family="Times New Roman,serif" font-size="14.00">Create to the power of 3 function using rate of evolution</text>
</g>
<!-- RelevanceToPopulation&#45;&gt;ToThePowerOf3 -->
<g id="edge10" class="edge">
<title>RelevanceToPopulation&#45;&gt;ToThePowerOf3</title>
<path fill="none" stroke="black" d="M164.75,-1079.7C164.75,-1072.24 164.75,-1063.32 164.75,-1054.97"/>
<polygon fill="black" stroke="black" points="168.25,-1055.1 164.75,-1045.1 161.25,-1055.1 168.25,-1055.1"/>
</g>
<!-- CubicFunction -->
<g id="node12" class="node">
<title>CubicFunction</title>
<polygon fill="none" stroke="black" points="296.5,-972 33,-972 33,-936 296.5,-936 296.5,-972"/>
<text text-anchor="middle" x="164.75" y="-948.58" font-family="Times New Roman,serif" font-size="14.00">Create cubic function using rate of evolution</text>
</g>
<!-- ToThePowerOf3&#45;&gt;CubicFunction -->
<g id="edge11" class="edge">
<title>ToThePowerOf3&#45;&gt;CubicFunction</title>
<path fill="none" stroke="black" d="M164.75,-1007.7C164.75,-1000.24 164.75,-991.32 164.75,-982.97"/>
<polygon fill="black" stroke="black" points="168.25,-983.1 164.75,-973.1 161.25,-983.1 168.25,-983.1"/>
</g>
<!-- ComplexFunction -->
<g id="node13" class="node">
<title>ComplexFunction</title>
<polygon fill="none" stroke="black" points="235.38,-900 94.12,-900 94.12,-864 235.38,-864 235.38,-900"/>
<text text-anchor="middle" x="164.75" y="-876.58" font-family="Times New Roman,serif" font-size="14.00">Make it more complex</text>
</g>
<!-- CubicFunction&#45;&gt;ComplexFunction -->
<g id="edge12" class="edge">
<title>CubicFunction&#45;&gt;ComplexFunction</title>
<path fill="none" stroke="black" d="M164.75,-935.7C164.75,-928.24 164.75,-919.32 164.75,-910.97"/>
<polygon fill="black" stroke="black" points="168.25,-911.1 164.75,-901.1 161.25,-911.1 168.25,-911.1"/>
</g>
<!-- Holes -->
<g id="node14" class="node">
<title>Holes</title>
<polygon fill="none" stroke="black" points="243.62,-828 85.88,-828 85.88,-792 243.62,-792 243.62,-828"/>
<text text-anchor="middle" x="164.75" y="-804.58" font-family="Times New Roman,serif" font-size="14.00">Find holes in the function</text>
</g>
<!-- ComplexFunction&#45;&gt;Holes -->
<g id="edge13" class="edge">
<title>ComplexFunction&#45;&gt;Holes</title>
<path fill="none" stroke="black" d="M164.75,-863.7C164.75,-856.24 164.75,-847.32 164.75,-838.97"/>
<polygon fill="black" stroke="black" points="168.25,-839.1 164.75,-829.1 161.25,-839.1 168.25,-839.1"/>
</g>
<!-- FirstDerivative -->
<g id="node15" class="node">
<title>FirstDerivative</title>
<polygon fill="none" stroke="black" points="239.5,-756 90,-756 90,-720 239.5,-720 239.5,-756"/>
<text text-anchor="middle" x="164.75" y="-732.58" font-family="Times New Roman,serif" font-size="14.00">Calculate first derivative</text>
</g>
<!-- Holes&#45;&gt;FirstDerivative -->
<g id="edge14" class="edge">
<title>Holes&#45;&gt;FirstDerivative</title>
<path fill="none" stroke="black" d="M164.75,-791.7C164.75,-784.24 164.75,-775.32 164.75,-766.97"/>
<polygon fill="black" stroke="black" points="168.25,-767.1 164.75,-757.1 161.25,-767.1 168.25,-767.1"/>
</g>
<!-- SecondDerivative -->
<g id="node16" class="node">
<title>SecondDerivative</title>
<polygon fill="none" stroke="black" points="248.88,-684 80.62,-684 80.62,-648 248.88,-648 248.88,-684"/>
<text text-anchor="middle" x="164.75" y="-660.58" font-family="Times New Roman,serif" font-size="14.00">Calculate second derivative</text>
</g>
<!-- FirstDerivative&#45;&gt;SecondDerivative -->
<g id="edge15" class="edge">
<title>FirstDerivative&#45;&gt;SecondDerivative</title>
<path fill="none" stroke="black" d="M164.75,-719.7C164.75,-712.24 164.75,-703.32 164.75,-694.97"/>
<polygon fill="black" stroke="black" points="168.25,-695.1 164.75,-685.1 161.25,-695.1 168.25,-695.1"/>
</g>
<!-- ThirdDerivative -->
<g id="node17" class="node">
<title>ThirdDerivative</title>
<polygon fill="none" stroke="black" points="241.38,-612 88.12,-612 88.12,-576 241.38,-576 241.38,-612"/>
<text text-anchor="middle" x="164.75" y="-588.58" font-family="Times New Roman,serif" font-size="14.00">Calculate third derivative</text>
</g>
<!-- SecondDerivative&#45;&gt;ThirdDerivative -->
<g id="edge16" class="edge">
<title>SecondDerivative&#45;&gt;ThirdDerivative</title>
<path fill="none" stroke="black" d="M164.75,-647.7C164.75,-640.24 164.75,-631.32 164.75,-622.97"/>
<polygon fill="black" stroke="black" points="168.25,-623.1 164.75,-613.1 161.25,-623.1 168.25,-623.1"/>
</g>
<!-- RelevanceToContext -->
<g id="node18" class="node">
<title>RelevanceToContext</title>
<polygon fill="none" stroke="black" points="277.38,-540 52.12,-540 52.12,-504 277.38,-504 277.38,-540"/>
<text text-anchor="middle" x="164.75" y="-516.58" font-family="Times New Roman,serif" font-size="14.00">Explain relevance to the initial context</text>
</g>
<!-- ThirdDerivative&#45;&gt;RelevanceToContext -->
<g id="edge17" class="edge">
<title>ThirdDerivative&#45;&gt;RelevanceToContext</title>
<path fill="none" stroke="black" d="M164.75,-575.7C164.75,-568.24 164.75,-559.32 164.75,-550.97"/>
<polygon fill="black" stroke="black" points="168.25,-551.1 164.75,-541.1 161.25,-551.1 168.25,-551.1"/>
</g>
<!-- Section6 -->
<g id="node19" class="node">
<title>Section6</title>
<polygon fill="none" stroke="black" points="286.38,-468 43.12,-468 43.12,-432 286.38,-432 286.38,-468"/>
<text text-anchor="middle" x="164.75" y="-444.57" font-family="Times New Roman,serif" font-size="14.00">Split code and calculate rate of evolution</text>
</g>
<!-- RelevanceToContext&#45;&gt;Section6 -->
<g id="edge18" class="edge">
<title>RelevanceToContext&#45;&gt;Section6</title>
<path fill="none" stroke="black" d="M164.75,-503.7C164.75,-496.24 164.75,-487.32 164.75,-478.97"/>
<polygon fill="black" stroke="black" points="168.25,-479.1 164.75,-469.1 161.25,-479.1 168.25,-479.1"/>
</g>
<!-- CreateCubicFunction -->
<g id="node20" class="node">
<title>CreateCubicFunction</title>
<polygon fill="none" stroke="black" points="295.38,-396 34.12,-396 34.12,-360 295.38,-360 295.38,-396"/>
<text text-anchor="middle" x="164.75" y="-372.57" font-family="Times New Roman,serif" font-size="14.00">Create cubic function using provided values</text>
</g>
<!-- Section6&#45;&gt;CreateCubicFunction -->
<g id="edge19" class="edge">
<title>Section6&#45;&gt;CreateCubicFunction</title>
<path fill="none" stroke="black" d="M164.75,-431.7C164.75,-424.24 164.75,-415.32 164.75,-406.97"/>
<polygon fill="black" stroke="black" points="168.25,-407.1 164.75,-397.1 161.25,-407.1 168.25,-407.1"/>
</g>
<!-- FirstDerivativeCubic -->
<g id="node21" class="node">
<title>FirstDerivativeCubic</title>
<polygon fill="none" stroke="black" points="226.75,-324 102.75,-324 102.75,-288 226.75,-288 226.75,-324"/>
<text text-anchor="middle" x="164.75" y="-300.57" font-family="Times New Roman,serif" font-size="14.00">Find first derivative</text>
</g>
<!-- CreateCubicFunction&#45;&gt;FirstDerivativeCubic -->
<g id="edge20" class="edge">
<title>CreateCubicFunction&#45;&gt;FirstDerivativeCubic</title>
<path fill="none" stroke="black" d="M164.75,-359.7C164.75,-352.24 164.75,-343.32 164.75,-334.97"/>
<polygon fill="black" stroke="black" points="168.25,-335.1 164.75,-325.1 161.25,-335.1 168.25,-335.1"/>
</g>
<!-- SecondDerivativeCubic -->
<g id="node22" class="node">
<title>SecondDerivativeCubic</title>
<polygon fill="none" stroke="black" points="236.12,-252 93.38,-252 93.38,-216 236.12,-216 236.12,-252"/>
<text text-anchor="middle" x="164.75" y="-228.57" font-family="Times New Roman,serif" font-size="14.00">Find second derivative</text>
</g>
<!-- FirstDerivativeCubic&#45;&gt;SecondDerivativeCubic -->
<g id="edge21" class="edge">
<title>FirstDerivativeCubic&#45;&gt;SecondDerivativeCubic</title>
<path fill="none" stroke="black" d="M164.75,-287.7C164.75,-280.24 164.75,-271.32 164.75,-262.97"/>
<polygon fill="black" stroke="black" points="168.25,-263.1 164.75,-253.1 161.25,-263.1 168.25,-263.1"/>
</g>
<!-- ChartCubic -->
<g id="node23" class="node">
<title>ChartCubic</title>
<polygon fill="none" stroke="black" points="240.25,-180 89.25,-180 89.25,-144 240.25,-144 240.25,-180"/>
<text text-anchor="middle" x="164.75" y="-156.57" font-family="Times New Roman,serif" font-size="14.00">Chart the cubic function</text>
</g>
<!-- SecondDerivativeCubic&#45;&gt;ChartCubic -->
<g id="edge22" class="edge">
<title>SecondDerivativeCubic&#45;&gt;ChartCubic</title>
<path fill="none" stroke="black" d="M164.75,-215.7C164.75,-208.24 164.75,-199.32 164.75,-190.97"/>
<polygon fill="black" stroke="black" points="168.25,-191.1 164.75,-181.1 161.25,-191.1 168.25,-191.1"/>
</g>
<!-- AdditionalActions -->
<g id="node24" class="node">
<title>AdditionalActions</title>
<polygon fill="none" stroke="black" points="223.38,-108 106.12,-108 106.12,-72 223.38,-72 223.38,-108"/>
<text text-anchor="middle" x="164.75" y="-84.58" font-family="Times New Roman,serif" font-size="14.00">Additional actions</text>
</g>
<!-- ChartCubic&#45;&gt;AdditionalActions -->
<g id="edge23" class="edge">
<title>ChartCubic&#45;&gt;AdditionalActions</title>
<path fill="none" stroke="black" d="M164.75,-143.7C164.75,-136.24 164.75,-127.32 164.75,-118.97"/>
<polygon fill="black" stroke="black" points="168.25,-119.1 164.75,-109.1 161.25,-119.1 168.25,-119.1"/>
</g>
<!-- End -->
<g id="node25" class="node">
<title>End</title>
<polygon fill="none" stroke="black" points="191.75,-36 137.75,-36 137.75,0 191.75,0 191.75,-36"/>
<text text-anchor="middle" x="164.75" y="-12.57" font-family="Times New Roman,serif" font-size="14.00">End</text>
</g>
<!-- AdditionalActions&#45;&gt;End -->
<g id="edge24" class="edge">
<title>AdditionalActions&#45;&gt;End</title>
<path fill="none" stroke="black" d="M164.75,-71.7C164.75,-64.24 164.75,-55.32 164.75,-46.97"/>
<polygon fill="black" stroke="black" points="168.25,-47.1 164.75,-37.1 161.25,-47.1 168.25,-47.1"/>
</g>
</g>
</svg>
