<?xml version="1.0" encoding="UTF-8" standalone="no"?>
<!DOCTYPE svg PUBLIC "-//W3C//DTD SVG 1.1//EN"
 "http://www.w3.org/Graphics/SVG/1.1/DTD/svg11.dtd">
<!-- Generated by graphviz version 8.1.0 (20230707.0739)
 -->
<!-- Title: QuantumAdventure Pages: 1 -->
<svg width="987pt" height="696pt"
 viewBox="0.00 0.00 987.00 695.53" xmlns="http://www.w3.org/2000/svg" xmlns:xlink="http://www.w3.org/1999/xlink">
<g id="graph0" class="graph" transform="scale(1 1) rotate(0) translate(4 691.53)">
<title>QuantumAdventure</title>
<polygon fill="white" stroke="none" points="-4,4 -4,-691.53 983,-691.53 983,4 -4,4"/>
<!-- Start -->
<g id="node1" class="node">
<title>Start</title>
<ellipse fill="none" stroke="blue" cx="472.12" cy="-656.65" rx="30.88" ry="30.88"/>
<text text-anchor="middle" x="472.12" y="-651.6" font-family="Arial" font-size="14.00">Start</text>
</g>
<!-- spread_dictation -->
<g id="node2" class="node">
<title>spread_dictation</title>
<path fill="none" stroke="black" d="M520.62,-589.77C520.62,-589.77 423.62,-589.77 423.62,-589.77 417.62,-589.77 411.62,-583.77 411.62,-577.77 411.62,-577.77 411.62,-565.77 411.62,-565.77 411.62,-559.77 417.62,-553.77 423.62,-553.77 423.62,-553.77 520.62,-553.77 520.62,-553.77 526.62,-553.77 532.62,-559.77 532.62,-565.77 532.62,-565.77 532.62,-577.77 532.62,-577.77 532.62,-583.77 526.62,-589.77 520.62,-589.77"/>
<text text-anchor="middle" x="472.12" y="-566.72" font-family="Arial" font-size="14.00">Spread Dictation</text>
</g>
<!-- Start&#45;&gt;spread_dictation -->
<g id="edge1" class="edge">
<title>Start&#45;&gt;spread_dictation</title>
<path fill="none" stroke="black" d="M472.12,-625.73C472.12,-617.53 472.12,-608.69 472.12,-600.61"/>
<polygon fill="black" stroke="black" points="475.63,-600.87 472.12,-590.87 468.63,-600.87 475.63,-600.87"/>
</g>
<!-- ContactHypothesis -->
<g id="node12" class="node">
<title>ContactHypothesis</title>
<path fill="none" stroke="black" d="M529.62,-517.77C529.62,-517.77 414.62,-517.77 414.62,-517.77 408.62,-517.77 402.62,-511.77 402.62,-505.77 402.62,-505.77 402.62,-493.77 402.62,-493.77 402.62,-487.77 408.62,-481.77 414.62,-481.77 414.62,-481.77 529.62,-481.77 529.62,-481.77 535.62,-481.77 541.62,-487.77 541.62,-493.77 541.62,-493.77 541.62,-505.77 541.62,-505.77 541.62,-511.77 535.62,-517.77 529.62,-517.77"/>
<text text-anchor="middle" x="472.12" y="-494.72" font-family="Arial" font-size="14.00">Contact Hypothesis</text>
</g>
<!-- spread_dictation&#45;&gt;ContactHypothesis -->
<g id="edge2" class="edge">
<title>spread_dictation&#45;&gt;ContactHypothesis</title>
<path fill="none" stroke="black" d="M472.12,-553.46C472.12,-546.01 472.12,-537.09 472.12,-528.73"/>
<polygon fill="black" stroke="black" points="475.63,-528.87 472.12,-518.87 468.63,-528.87 475.63,-528.87"/>
</g>
<!-- quantum_tunneling -->
<g id="node3" class="node">
<title>quantum_tunneling</title>
<path fill="none" stroke="black" d="M126.25,-249.58C126.25,-249.58 12,-249.58 12,-249.58 6,-249.58 0,-243.58 0,-237.58 0,-237.58 0,-225.58 0,-225.58 0,-219.58 6,-213.58 12,-213.58 12,-213.58 126.25,-213.58 126.25,-213.58 132.25,-213.58 138.25,-219.58 138.25,-225.58 138.25,-225.58 138.25,-237.58 138.25,-237.58 138.25,-243.58 132.25,-249.58 126.25,-249.58"/>
<text text-anchor="middle" x="69.12" y="-226.53" font-family="Arial" font-size="14.00">Quantum Tunneling</text>
</g>
<!-- success -->
<g id="node13" class="node">
<title>success</title>
<ellipse fill="none" stroke="green" cx="355.12" cy="-52.79" rx="48.79" ry="48.79"/>
<ellipse fill="none" stroke="green" cx="355.12" cy="-52.79" rx="52.79" ry="52.79"/>
<text text-anchor="middle" x="355.12" y="-47.74" font-family="Arial" font-size="14.00">Success</text>
</g>
<!-- quantum_tunneling&#45;&gt;success -->
<g id="edge12" class="edge">
<title>quantum_tunneling&#45;&gt;success</title>
<path fill="none" stroke="black" d="M68.03,-213.27C67.75,-193.49 70.39,-161.33 88.12,-141.58 139.95,-83.88 230.36,-63.98 291.45,-57.2"/>
<polygon fill="black" stroke="black" points="291.53,-60.6 301.12,-56.11 290.82,-53.64 291.53,-60.6"/>
</g>
<!-- quantum_entanglement_fireworks -->
<g id="node4" class="node">
<title>quantum_entanglement_fireworks</title>
<path fill="none" stroke="black" d="M314.62,-177.58C314.62,-177.58 109.62,-177.58 109.62,-177.58 103.62,-177.58 97.63,-171.58 97.63,-165.58 97.63,-165.58 97.63,-153.58 97.63,-153.58 97.63,-147.58 103.63,-141.58 109.63,-141.58 109.63,-141.58 314.62,-141.58 314.62,-141.58 320.62,-141.58 326.62,-147.58 326.62,-153.58 326.62,-153.58 326.62,-165.58 326.62,-165.58 326.62,-171.58 320.62,-177.58 314.62,-177.58"/>
<text text-anchor="middle" x="212.12" y="-154.53" font-family="Arial" font-size="14.00">Quantum Entanglement Fireworks</text>
</g>
<!-- quantum_entanglement_fireworks&#45;&gt;success -->
<g id="edge13" class="edge">
<title>quantum_entanglement_fireworks&#45;&gt;success</title>
<path fill="none" stroke="black" d="M235.74,-141.28C254.24,-127.72 280.65,-108.37 303.94,-91.3"/>
<polygon fill="black" stroke="black" points="305.69,-93.63 311.68,-84.89 301.55,-87.98 305.69,-93.63"/>
</g>
<!-- quantum_carnival -->
<g id="node5" class="node">
<title>quantum_carnival</title>
<path fill="none" stroke="black" d="M309.62,-347.68C309.62,-347.68 206.62,-347.68 206.62,-347.68 200.62,-347.68 194.62,-341.68 194.62,-335.68 194.62,-335.68 194.62,-323.68 194.62,-323.68 194.62,-317.68 200.62,-311.68 206.62,-311.68 206.62,-311.68 309.62,-311.68 309.62,-311.68 315.62,-311.68 321.62,-317.68 321.62,-323.68 321.62,-323.68 321.62,-335.68 321.62,-335.68 321.62,-341.68 315.62,-347.68 309.62,-347.68"/>
<text text-anchor="middle" x="258.12" y="-324.63" font-family="Arial" font-size="14.00">Quantum Carnival</text>
</g>
<!-- quantum_carnival&#45;&gt;success -->
<g id="edge14" class="edge">
<title>quantum_carnival&#45;&gt;success</title>
<path fill="none" stroke="black" d="M269.26,-311.32C286.24,-284 318.39,-228.8 335.12,-177.58 341.46,-158.2 345.83,-136.43 348.84,-116.62"/>
<polygon fill="black" stroke="black" points="352.43,-117.23 350.37,-106.84 345.5,-116.25 352.43,-117.23"/>
</g>
<!-- quantum_fizzle -->
<g id="node6" class="node">
<title>quantum_fizzle</title>
<path fill="none" stroke="black" d="M333.88,-445.77C333.88,-445.77 244.38,-445.77 244.38,-445.77 238.38,-445.77 232.38,-439.77 232.38,-433.77 232.38,-433.77 232.38,-421.77 232.38,-421.77 232.38,-415.77 238.38,-409.77 244.38,-409.77 244.38,-409.77 333.88,-409.77 333.88,-409.77 339.88,-409.77 345.88,-415.77 345.88,-421.77 345.88,-421.77 345.88,-433.77 345.88,-433.77 345.88,-439.77 339.88,-445.77 333.88,-445.77"/>
<text text-anchor="middle" x="289.12" y="-422.72" font-family="Arial" font-size="14.00">Quantum Fizzle</text>
</g>
<!-- failure -->
<g id="node14" class="node">
<title>failure</title>
<ellipse fill="none" stroke="red" cx="384.12" cy="-329.68" rx="40.09" ry="40.09"/>
<ellipse fill="none" stroke="red" cx="384.12" cy="-329.68" rx="44.09" ry="44.09"/>
<text text-anchor="middle" x="384.12" y="-324.63" font-family="Arial" font-size="14.00">Failure</text>
</g>
<!-- quantum_fizzle&#45;&gt;failure -->
<g id="edge15" class="edge">
<title>quantum_fizzle&#45;&gt;failure</title>
<path fill="none" stroke="black" d="M306.11,-409.59C317.19,-398.38 332.1,-383.29 345.93,-369.31"/>
<polygon fill="black" stroke="black" points="347.92,-372.26 352.46,-362.69 342.94,-367.34 347.92,-372.26"/>
</g>
<!-- energetic_quantum_fluctuations -->
<g id="node7" class="node">
<title>energetic_quantum_fluctuations</title>
<path fill="none" stroke="black" d="M568.62,-445.77C568.62,-445.77 375.62,-445.77 375.62,-445.77 369.62,-445.77 363.62,-439.77 363.62,-433.77 363.62,-433.77 363.62,-421.77 363.62,-421.77 363.62,-415.77 369.62,-409.77 375.62,-409.77 375.62,-409.77 568.62,-409.77 568.62,-409.77 574.62,-409.77 580.62,-415.77 580.62,-421.77 580.62,-421.77 580.62,-433.77 580.62,-433.77 580.62,-439.77 574.62,-445.77 568.62,-445.77"/>
<text text-anchor="middle" x="472.12" y="-422.72" font-family="Arial" font-size="14.00">Energetic Quantum Fluctuations</text>
</g>
<!-- quantum_superposition -->
<g id="node8" class="node">
<title>quantum_superposition</title>
<path fill="none" stroke="black" d="M598.38,-347.68C598.38,-347.68 457.88,-347.68 457.88,-347.68 451.88,-347.68 445.88,-341.68 445.88,-335.68 445.88,-335.68 445.88,-323.68 445.88,-323.68 445.88,-317.68 451.88,-311.68 457.88,-311.68 457.88,-311.68 598.38,-311.68 598.38,-311.68 604.38,-311.68 610.38,-317.68 610.38,-323.68 610.38,-323.68 610.38,-335.68 610.38,-335.68 610.38,-341.68 604.38,-347.68 598.38,-347.68"/>
<text text-anchor="middle" x="528.12" y="-324.63" font-family="Arial" font-size="14.00">Quantum Superposition</text>
</g>
<!-- energetic_quantum_fluctuations&#45;&gt;quantum_superposition -->
<g id="edge16" class="edge">
<title>energetic_quantum_fluctuations&#45;&gt;quantum_superposition</title>
<path fill="none" stroke="black" d="M482.14,-409.59C490.6,-395.06 502.88,-374 512.62,-357.28"/>
<polygon fill="black" stroke="black" points="516,-359.43 518.01,-349.03 509.95,-355.91 516,-359.43"/>
</g>
<!-- quantum_entanglement_superposition -->
<g id="node9" class="node">
<title>quantum_entanglement_superposition</title>
<path fill="none" stroke="black" d="M644.88,-249.58C644.88,-249.58 399.38,-249.58 399.38,-249.58 393.38,-249.58 387.38,-243.58 387.38,-237.58 387.38,-237.58 387.38,-225.58 387.38,-225.58 387.38,-219.58 393.38,-213.58 399.38,-213.58 399.38,-213.58 644.88,-213.58 644.88,-213.58 650.88,-213.58 656.88,-219.58 656.88,-225.58 656.88,-225.58 656.88,-237.58 656.88,-237.58 656.88,-243.58 650.88,-249.58 644.88,-249.58"/>
<text text-anchor="middle" x="522.12" y="-226.53" font-family="Arial" font-size="14.00">Quantum Entanglement in Superposition</text>
</g>
<!-- quantum_superposition&#45;&gt;quantum_entanglement_superposition -->
<g id="edge17" class="edge">
<title>quantum_superposition&#45;&gt;quantum_entanglement_superposition</title>
<path fill="none" stroke="black" d="M527.05,-311.5C526.17,-297.37 524.9,-277.08 523.87,-260.61"/>
<polygon fill="black" stroke="black" points="527.33,-260.7 523.21,-250.94 520.34,-261.14 527.33,-260.7"/>
</g>
<!-- quantum_teleportation -->
<g id="node10" class="node">
<title>quantum_teleportation</title>
<path fill="none" stroke="black" d="M590.12,-177.58C590.12,-177.58 454.12,-177.58 454.12,-177.58 448.12,-177.58 442.12,-171.58 442.12,-165.58 442.12,-165.58 442.12,-153.58 442.12,-153.58 442.12,-147.58 448.12,-141.58 454.12,-141.58 454.12,-141.58 590.12,-141.58 590.12,-141.58 596.12,-141.58 602.12,-147.58 602.12,-153.58 602.12,-153.58 602.12,-165.58 602.12,-165.58 602.12,-171.58 596.12,-177.58 590.12,-177.58"/>
<text text-anchor="middle" x="522.12" y="-154.53" font-family="Arial" font-size="14.00">Quantum Teleportation</text>
</g>
<!-- quantum_entanglement_superposition&#45;&gt;quantum_teleportation -->
<g id="edge18" class="edge">
<title>quantum_entanglement_superposition&#45;&gt;quantum_teleportation</title>
<path fill="none" stroke="black" d="M522.12,-213.28C522.12,-205.82 522.12,-196.91 522.12,-188.55"/>
<polygon fill="black" stroke="black" points="525.63,-188.69 522.12,-178.69 518.63,-188.69 525.63,-188.69"/>
</g>
<!-- quantum_teleportation&#45;&gt;success -->
<g id="edge19" class="edge">
<title>quantum_teleportation&#45;&gt;success</title>
<path fill="none" stroke="black" d="M494.55,-141.28C471.31,-126.7 437.37,-105.4 408.8,-87.47"/>
<polygon fill="black" stroke="black" points="411.06,-84.14 400.73,-81.78 407.34,-90.06 411.06,-84.14"/>
</g>
<!-- quantum_entanglement_communication -->
<g id="node11" class="node">
<title>quantum_entanglement_communication</title>
<path fill="none" stroke="black" d="M967,-249.58C967,-249.58 725.25,-249.58 725.25,-249.58 719.25,-249.58 713.25,-243.58 713.25,-237.58 713.25,-237.58 713.25,-225.58 713.25,-225.58 713.25,-219.58 719.25,-213.58 725.25,-213.58 725.25,-213.58 967,-213.58 967,-213.58 973,-213.58 979,-219.58 979,-225.58 979,-225.58 979,-237.58 979,-237.58 979,-243.58 973,-249.58 967,-249.58"/>
<text text-anchor="middle" x="846.12" y="-226.53" font-family="Arial" font-size="14.00">Quantum Entanglement Communication</text>
</g>
<!-- quantum_entanglement_communication&#45;&gt;success -->
<g id="edge20" class="edge">
<title>quantum_entanglement_communication&#45;&gt;success</title>
<path fill="none" stroke="black" d="M801.23,-213.1C754.05,-194.84 677.61,-165.57 611.12,-141.58 544.55,-117.57 467.7,-91.42 415.7,-73.97"/>
<polygon fill="black" stroke="black" points="416.92,-70.35 406.32,-70.48 414.69,-76.98 416.92,-70.35"/>
</g>
<!-- ContactHypothesis&#45;&gt;quantum_tunneling -->
<g id="edge3" class="edge">
<title>ContactHypothesis&#45;&gt;quantum_tunneling</title>
<path fill="none" stroke="black" d="M402.44,-495.18C320.11,-489.6 189.56,-476.16 152.12,-445.77 94.56,-399.04 76.81,-307.1 71.42,-260.73"/>
<polygon fill="black" stroke="black" points="74.82,-260.57 70.3,-250.98 67.86,-261.29 74.82,-260.57"/>
</g>
<!-- ContactHypothesis&#45;&gt;quantum_entanglement_fireworks -->
<g id="edge4" class="edge">
<title>ContactHypothesis&#45;&gt;quantum_entanglement_fireworks</title>
<path fill="none" stroke="black" d="M402.29,-492.44C334.63,-484.97 238.26,-470.35 210.12,-445.77 136.24,-381.21 177.94,-245.72 200.55,-187.79"/>
<polygon fill="black" stroke="black" points="204.04,-189.49 204.52,-178.91 197.54,-186.89 204.04,-189.49"/>
</g>
<!-- ContactHypothesis&#45;&gt;quantum_carnival -->
<g id="edge5" class="edge">
<title>ContactHypothesis&#45;&gt;quantum_carnival</title>
<path fill="none" stroke="black" d="M402.42,-493.56C336.79,-487.04 245.34,-473.21 223.12,-445.77 202.29,-420.03 220.68,-382.04 237.71,-356.83"/>
<polygon fill="black" stroke="black" points="240.92,-359.36 243.84,-349.17 235.21,-355.31 240.92,-359.36"/>
</g>
<!-- ContactHypothesis&#45;&gt;quantum_fizzle -->
<g id="edge6" class="edge">
<title>ContactHypothesis&#45;&gt;quantum_fizzle</title>
<path fill="none" stroke="black" d="M426.42,-481.28C401.65,-471.81 370.85,-460.03 344.71,-450.03"/>
<polygon fill="black" stroke="black" points="346.16,-446.45 335.57,-446.15 343.66,-452.99 346.16,-446.45"/>
</g>
<!-- ContactHypothesis&#45;&gt;energetic_quantum_fluctuations -->
<g id="edge7" class="edge">
<title>ContactHypothesis&#45;&gt;energetic_quantum_fluctuations</title>
<path fill="none" stroke="black" d="M472.12,-481.46C472.12,-474.01 472.12,-465.09 472.12,-456.73"/>
<polygon fill="black" stroke="black" points="475.63,-456.87 472.12,-446.87 468.63,-456.87 475.63,-456.87"/>
</g>
<!-- ContactHypothesis&#45;&gt;quantum_superposition -->
<g id="edge8" class="edge">
<title>ContactHypothesis&#45;&gt;quantum_superposition</title>
<path fill="none" stroke="black" d="M541.88,-482.22C560.36,-474.32 578.19,-462.73 589.12,-445.77 608.39,-415.89 580.98,-379.3 556.97,-355.51"/>
<polygon fill="black" stroke="black" points="559.68,-353.31 550.02,-348.96 554.86,-358.39 559.68,-353.31"/>
</g>
<!-- ContactHypothesis&#45;&gt;quantum_entanglement_superposition -->
<g id="edge9" class="edge">
<title>ContactHypothesis&#45;&gt;quantum_entanglement_superposition</title>
<path fill="none" stroke="black" d="M542.01,-486.08C566,-478.31 590.88,-465.82 607.12,-445.77 652.07,-390.3 655.55,-346.99 619.12,-285.58 611.48,-272.7 599.48,-262.75 586.49,-255.13"/>
<polygon fill="black" stroke="black" points="588.38,-251.64 577.91,-250 585.07,-257.81 588.38,-251.64"/>
</g>
<!-- ContactHypothesis&#45;&gt;quantum_teleportation -->
<g id="edge10" class="edge">
<title>ContactHypothesis&#45;&gt;quantum_teleportation</title>
<path fill="none" stroke="black" d="M541.77,-492.1C574.05,-485.39 610.24,-472.08 633.12,-445.77 639.58,-438.34 662.19,-298.75 666.12,-249.58 667.4,-233.64 675.28,-226.71 666.12,-213.58 657.81,-201.66 630.41,-190.27 601.72,-181.13"/>
<polygon fill="black" stroke="black" points="603.13,-177.59 592.54,-177.99 601.07,-184.28 603.13,-177.59"/>
</g>
<!-- ContactHypothesis&#45;&gt;quantum_entanglement_communication -->
<g id="edge11" class="edge">
<title>ContactHypothesis&#45;&gt;quantum_entanglement_communication</title>
<path fill="none" stroke="black" d="M541.9,-495.53C589.71,-490.35 652.64,-477.45 699.12,-445.77 768.77,-398.3 815.24,-306.03 835.13,-260.03"/>
<polygon fill="black" stroke="black" points="838.74,-261.48 839.4,-250.91 832.29,-258.76 838.74,-261.48"/>
</g>
</g>
</svg>
