<?xml version="1.0" encoding="UTF-8" standalone="no"?>
<!DOCTYPE svg PUBLIC "-//W3C//DTD SVG 1.1//EN"
 "http://www.w3.org/Graphics/SVG/1.1/DTD/svg11.dtd">
<!-- Generated by graphviz version 8.1.0 (20230707.0739)
 -->
<!-- Title: Process Pages: 1 -->
<svg width="832pt" height="3284pt"
 viewBox="0.00 0.00 832.48 3284.00" xmlns="http://www.w3.org/2000/svg" xmlns:xlink="http://www.w3.org/1999/xlink">
<g id="graph0" class="graph" transform="scale(1 1) rotate(0) translate(4 3280)">
<title>Process</title>
<polygon fill="white" stroke="none" points="-4,4 -4,-3280 828.48,-3280 828.48,4 -4,4"/>
<!-- start -->
<g id="node1" class="node">
<title>start</title>
<ellipse fill="none" stroke="black" cx="792.87" cy="-3258" rx="28.11" ry="18"/>
<text text-anchor="middle" x="792.87" y="-3252.57" font-family="Times New Roman,serif" font-size="14.00">Start</text>
</g>
<!-- e -->
<g id="node2" class="node">
<title>e</title>
<ellipse fill="none" stroke="black" cx="792.87" cy="-3186" rx="27" ry="18"/>
<text text-anchor="middle" x="792.87" y="-3180.57" font-family="Times New Roman,serif" font-size="14.00">e</text>
</g>
<!-- start&#45;&gt;e -->
<g id="edge70" class="edge">
<title>start&#45;&gt;e</title>
<path fill="none" stroke="black" d="M792.87,-3239.7C792.87,-3232.24 792.87,-3223.32 792.87,-3214.97"/>
<polygon fill="black" stroke="black" points="796.37,-3215.1 792.87,-3205.1 789.37,-3215.1 796.37,-3215.1"/>
</g>
<!-- f -->
<g id="node3" class="node">
<title>f</title>
<ellipse fill="none" stroke="black" cx="792.87" cy="-3114" rx="27" ry="18"/>
<text text-anchor="middle" x="792.87" y="-3108.57" font-family="Times New Roman,serif" font-size="14.00">f</text>
</g>
<!-- e&#45;&gt;f -->
<g id="edge1" class="edge">
<title>e&#45;&gt;f</title>
<path fill="none" stroke="black" d="M786.99,-3168.05C786.18,-3160.4 785.94,-3151.16 786.26,-3142.56"/>
<polygon fill="black" stroke="black" points="789.81,-3143.01 787.01,-3132.79 782.82,-3142.52 789.81,-3143.01"/>
</g>
<!-- e&#45;&gt;f -->
<g id="edge29" class="edge">
<title>e&#45;&gt;f</title>
<path fill="none" stroke="black" d="M798.75,-3168.05C799.56,-3160.4 799.81,-3151.16 799.48,-3142.56"/>
<polygon fill="black" stroke="black" points="802.92,-3142.52 798.73,-3132.79 795.94,-3143.01 802.92,-3142.52"/>
</g>
<!-- imm -->
<g id="node4" class="node">
<title>imm</title>
<ellipse fill="none" stroke="black" cx="681.87" cy="-3042" rx="27" ry="18"/>
<text text-anchor="middle" x="681.87" y="-3036.57" font-family="Times New Roman,serif" font-size="14.00">imm</text>
</g>
<!-- f&#45;&gt;imm -->
<g id="edge2" class="edge">
<title>f&#45;&gt;imm</title>
<path fill="none" stroke="black" d="M773.79,-3100.97C756.32,-3089.95 730.22,-3073.49 710.3,-3060.93"/>
<polygon fill="black" stroke="black" points="712.4,-3057.48 702.08,-3055.11 708.67,-3063.41 712.4,-3057.48"/>
</g>
<!-- f_inv -->
<g id="node29" class="node">
<title>f_inv</title>
<ellipse fill="none" stroke="black" cx="792.87" cy="-3042" rx="29.61" ry="18"/>
<text text-anchor="middle" x="792.87" y="-3036.57" font-family="Times New Roman,serif" font-size="14.00">f_inv</text>
</g>
<!-- f&#45;&gt;f_inv -->
<g id="edge30" class="edge">
<title>f&#45;&gt;f_inv</title>
<path fill="none" stroke="black" d="M792.87,-3095.7C792.87,-3088.24 792.87,-3079.32 792.87,-3070.97"/>
<polygon fill="black" stroke="black" points="796.37,-3071.1 792.87,-3061.1 789.37,-3071.1 796.37,-3071.1"/>
</g>
<!-- imm&#45;&gt;e -->
<g id="edge28" class="edge">
<title>imm&#45;&gt;e</title>
<path fill="none" stroke="black" d="M693.95,-3058.45C713.29,-3083.19 751.35,-3131.89 774.21,-3161.13"/>
<polygon fill="black" stroke="black" points="771.86,-3162.81 780.78,-3168.53 777.38,-3158.5 771.86,-3162.81"/>
</g>
<!-- ce -->
<g id="node5" class="node">
<title>ce</title>
<ellipse fill="none" stroke="black" cx="668.87" cy="-2970" rx="27" ry="18"/>
<text text-anchor="middle" x="668.87" y="-2964.57" font-family="Times New Roman,serif" font-size="14.00">ce</text>
</g>
<!-- imm&#45;&gt;ce -->
<g id="edge3" class="edge">
<title>imm&#45;&gt;ce</title>
<path fill="none" stroke="black" d="M678.66,-3023.7C677.26,-3016.15 675.58,-3007.12 674.01,-2998.68"/>
<polygon fill="black" stroke="black" points="677.31,-2998.3 672.05,-2989.1 670.43,-2999.58 677.31,-2998.3"/>
</g>
<!-- cf -->
<g id="node6" class="node">
<title>cf</title>
<ellipse fill="none" stroke="black" cx="662.87" cy="-2898" rx="27" ry="18"/>
<text text-anchor="middle" x="662.87" y="-2892.57" font-family="Times New Roman,serif" font-size="14.00">cf</text>
</g>
<!-- ce&#45;&gt;cf -->
<g id="edge4" class="edge">
<title>ce&#45;&gt;cf</title>
<path fill="none" stroke="black" d="M667.39,-2951.7C666.75,-2944.24 665.98,-2935.32 665.27,-2926.97"/>
<polygon fill="black" stroke="black" points="668.68,-2926.77 664.34,-2917.1 661.7,-2927.37 668.68,-2926.77"/>
</g>
<!-- cp -->
<g id="node7" class="node">
<title>cp</title>
<ellipse fill="none" stroke="black" cx="659.87" cy="-2826" rx="27" ry="18"/>
<text text-anchor="middle" x="659.87" y="-2820.57" font-family="Times New Roman,serif" font-size="14.00">cp</text>
</g>
<!-- cf&#45;&gt;cp -->
<g id="edge5" class="edge">
<title>cf&#45;&gt;cp</title>
<path fill="none" stroke="black" d="M662.13,-2879.7C661.81,-2872.24 661.43,-2863.32 661.07,-2854.97"/>
<polygon fill="black" stroke="black" points="664.53,-2854.95 660.6,-2845.1 657.54,-2855.25 664.53,-2854.95"/>
</g>
<!-- mantle -->
<g id="node8" class="node">
<title>mantle</title>
<ellipse fill="none" stroke="black" cx="657.87" cy="-2754" rx="34.6" ry="18"/>
<text text-anchor="middle" x="657.87" y="-2748.57" font-family="Times New Roman,serif" font-size="14.00">mantle</text>
</g>
<!-- cp&#45;&gt;mantle -->
<g id="edge6" class="edge">
<title>cp&#45;&gt;mantle</title>
<path fill="none" stroke="black" d="M659.38,-2807.7C659.16,-2800.24 658.91,-2791.32 658.67,-2782.97"/>
<polygon fill="black" stroke="black" points="662.14,-2783 658.36,-2773.1 655.15,-2783.2 662.14,-2783"/>
</g>
<!-- ceta -->
<g id="node9" class="node">
<title>ceta</title>
<ellipse fill="none" stroke="black" cx="656.87" cy="-2682" rx="27" ry="18"/>
<text text-anchor="middle" x="656.87" y="-2676.57" font-family="Times New Roman,serif" font-size="14.00">ceta</text>
</g>
<!-- mantle&#45;&gt;ceta -->
<g id="edge7" class="edge">
<title>mantle&#45;&gt;ceta</title>
<path fill="none" stroke="black" d="M657.62,-2735.7C657.52,-2728.24 657.39,-2719.32 657.27,-2710.97"/>
<polygon fill="black" stroke="black" points="660.76,-2711.05 657.12,-2701.1 653.76,-2711.15 660.76,-2711.05"/>
</g>
<!-- ceta&#45;&gt;ceta -->
<g id="edge8" class="edge">
<title>ceta&#45;&gt;ceta</title>
<path fill="none" stroke="black" d="M676.77,-2694.43C689.56,-2697.68 701.87,-2693.53 701.87,-2682 701.87,-2673.89 695.78,-2669.44 687.72,-2668.63"/>
<polygon fill="black" stroke="black" points="687.43,-2665.23 677.77,-2669.57 688.03,-2672.2 687.43,-2665.23"/>
</g>
<!-- hover -->
<g id="node10" class="node">
<title>hover</title>
<ellipse fill="none" stroke="black" cx="656.87" cy="-2610" rx="31.6" ry="18"/>
<text text-anchor="middle" x="656.87" y="-2604.57" font-family="Times New Roman,serif" font-size="14.00">hover</text>
</g>
<!-- ceta&#45;&gt;hover -->
<g id="edge9" class="edge">
<title>ceta&#45;&gt;hover</title>
<path fill="none" stroke="black" d="M656.87,-2663.7C656.87,-2656.24 656.87,-2647.32 656.87,-2638.97"/>
<polygon fill="black" stroke="black" points="660.37,-2639.1 656.87,-2629.1 653.37,-2639.1 660.37,-2639.1"/>
</g>
<!-- float -->
<g id="node11" class="node">
<title>float</title>
<ellipse fill="none" stroke="black" cx="656.87" cy="-2538" rx="27.11" ry="18"/>
<text text-anchor="middle" x="656.87" y="-2532.57" font-family="Times New Roman,serif" font-size="14.00">float</text>
</g>
<!-- hover&#45;&gt;float -->
<g id="edge10" class="edge">
<title>hover&#45;&gt;float</title>
<path fill="none" stroke="black" d="M650.99,-2592.05C650.18,-2584.4 649.94,-2575.16 650.26,-2566.56"/>
<polygon fill="black" stroke="black" points="653.81,-2567.01 651.01,-2556.79 646.82,-2566.52 653.81,-2567.01"/>
</g>
<!-- hover&#45;&gt;float -->
<g id="edge41" class="edge">
<title>hover&#45;&gt;float</title>
<path fill="none" stroke="black" d="M662.75,-2592.05C663.56,-2584.4 663.81,-2575.16 663.48,-2566.56"/>
<polygon fill="black" stroke="black" points="666.92,-2566.52 662.73,-2556.79 659.94,-2567.01 666.92,-2566.52"/>
</g>
<!-- boundary_water -->
<g id="node12" class="node">
<title>boundary_water</title>
<ellipse fill="none" stroke="black" cx="655.87" cy="-2466" rx="71.02" ry="18"/>
<text text-anchor="middle" x="655.87" y="-2460.57" font-family="Times New Roman,serif" font-size="14.00">boundary_water</text>
</g>
<!-- float&#45;&gt;boundary_water -->
<g id="edge11" class="edge">
<title>float&#45;&gt;boundary_water</title>
<path fill="none" stroke="black" d="M656.62,-2519.7C656.52,-2512.24 656.39,-2503.32 656.27,-2494.97"/>
<polygon fill="black" stroke="black" points="659.76,-2495.05 656.12,-2485.1 652.76,-2495.15 659.76,-2495.05"/>
</g>
<!-- neuro -->
<g id="node18" class="node">
<title>neuro</title>
<ellipse fill="none" stroke="black" cx="574.87" cy="-2034" rx="31.6" ry="18"/>
<text text-anchor="middle" x="574.87" y="-2028.58" font-family="Times New Roman,serif" font-size="14.00">neuro</text>
</g>
<!-- float&#45;&gt;neuro -->
<g id="edge42" class="edge">
<title>float&#45;&gt;neuro</title>
<path fill="none" stroke="black" d="M634.54,-2527.6C616.28,-2518.84 591.09,-2504.1 575.87,-2484 550.84,-2450.94 547.87,-2436.47 547.87,-2395 547.87,-2395 547.87,-2395 547.87,-2177 547.87,-2136.46 558.62,-2090.53 566.56,-2062.17"/>
<polygon fill="black" stroke="black" points="570.12,-2063.43 569.54,-2052.85 563.4,-2061.49 570.12,-2063.43"/>
</g>
<!-- transitionary_limit -->
<g id="node13" class="node">
<title>transitionary_limit</title>
<ellipse fill="none" stroke="black" cx="652.87" cy="-2394" rx="76.51" ry="18"/>
<text text-anchor="middle" x="652.87" y="-2388.57" font-family="Times New Roman,serif" font-size="14.00">transitionary_limit</text>
</g>
<!-- boundary_water&#45;&gt;transitionary_limit -->
<g id="edge12" class="edge">
<title>boundary_water&#45;&gt;transitionary_limit</title>
<path fill="none" stroke="black" d="M655.13,-2447.7C654.81,-2440.24 654.43,-2431.32 654.07,-2422.97"/>
<polygon fill="black" stroke="black" points="657.53,-2422.95 653.6,-2413.1 650.54,-2423.25 657.53,-2422.95"/>
</g>
<!-- water_boundary -->
<g id="node14" class="node">
<title>water_boundary</title>
<ellipse fill="none" stroke="black" cx="650.87" cy="-2322" rx="71.02" ry="18"/>
<text text-anchor="middle" x="650.87" y="-2316.57" font-family="Times New Roman,serif" font-size="14.00">water_boundary</text>
</g>
<!-- transitionary_limit&#45;&gt;water_boundary -->
<g id="edge13" class="edge">
<title>transitionary_limit&#45;&gt;water_boundary</title>
<path fill="none" stroke="black" d="M652.38,-2375.7C652.16,-2368.24 651.91,-2359.32 651.67,-2350.97"/>
<polygon fill="black" stroke="black" points="655.14,-2351 651.36,-2341.1 648.15,-2351.2 655.14,-2351"/>
</g>
<!-- magmus -->
<g id="node15" class="node">
<title>magmus</title>
<ellipse fill="none" stroke="black" cx="649.87" cy="-2250" rx="41.58" ry="18"/>
<text text-anchor="middle" x="649.87" y="-2244.57" font-family="Times New Roman,serif" font-size="14.00">magmus</text>
</g>
<!-- water_boundary&#45;&gt;magmus -->
<g id="edge14" class="edge">
<title>water_boundary&#45;&gt;magmus</title>
<path fill="none" stroke="black" d="M650.62,-2303.7C650.52,-2296.24 650.39,-2287.32 650.27,-2278.97"/>
<polygon fill="black" stroke="black" points="653.76,-2279.05 650.12,-2269.1 646.76,-2279.15 653.76,-2279.05"/>
</g>
<!-- solar -->
<g id="node16" class="node">
<title>solar</title>
<ellipse fill="none" stroke="black" cx="641.87" cy="-2178" rx="28.61" ry="18"/>
<text text-anchor="middle" x="641.87" y="-2172.57" font-family="Times New Roman,serif" font-size="14.00">solar</text>
</g>
<!-- magmus&#45;&gt;solar -->
<g id="edge15" class="edge">
<title>magmus&#45;&gt;solar</title>
<path fill="none" stroke="black" d="M647.89,-2231.7C647.04,-2224.24 646.02,-2215.32 645.07,-2206.97"/>
<polygon fill="black" stroke="black" points="648.44,-2206.64 643.83,-2197.1 641.48,-2207.44 648.44,-2206.64"/>
</g>
<!-- flat_organism -->
<g id="node17" class="node">
<title>flat_organism</title>
<ellipse fill="none" stroke="black" cx="637.87" cy="-2106" rx="61.04" ry="18"/>
<text text-anchor="middle" x="637.87" y="-2100.57" font-family="Times New Roman,serif" font-size="14.00">flat_organism</text>
</g>
<!-- solar&#45;&gt;flat_organism -->
<g id="edge16" class="edge">
<title>solar&#45;&gt;flat_organism</title>
<path fill="none" stroke="black" d="M640.88,-2159.7C640.46,-2152.24 639.95,-2143.32 639.47,-2134.97"/>
<polygon fill="black" stroke="black" points="642.91,-2134.89 638.85,-2125.1 635.92,-2135.29 642.91,-2134.89"/>
</g>
<!-- flat_organism&#45;&gt;neuro -->
<g id="edge17" class="edge">
<title>flat_organism&#45;&gt;neuro</title>
<path fill="none" stroke="black" d="M622.94,-2088.41C614.95,-2079.53 604.97,-2068.44 596.17,-2058.67"/>
<polygon fill="black" stroke="black" points="599.12,-2056.6 589.83,-2051.51 593.92,-2061.29 599.12,-2056.6"/>
</g>
<!-- mass -->
<g id="node19" class="node">
<title>mass</title>
<ellipse fill="none" stroke="black" cx="574.87" cy="-1962" rx="29.61" ry="18"/>
<text text-anchor="middle" x="574.87" y="-1956.58" font-family="Times New Roman,serif" font-size="14.00">mass</text>
</g>
<!-- neuro&#45;&gt;mass -->
<g id="edge18" class="edge">
<title>neuro&#45;&gt;mass</title>
<path fill="none" stroke="black" d="M568.99,-2016.05C568.18,-2008.4 567.94,-1999.16 568.26,-1990.56"/>
<polygon fill="black" stroke="black" points="571.81,-1991.01 569.01,-1980.79 564.82,-1990.52 571.81,-1991.01"/>
</g>
<!-- neuro&#45;&gt;mass -->
<g id="edge43" class="edge">
<title>neuro&#45;&gt;mass</title>
<path fill="none" stroke="black" d="M580.75,-2016.05C581.56,-2008.4 581.81,-1999.16 581.48,-1990.56"/>
<polygon fill="black" stroke="black" points="584.92,-1990.52 580.73,-1980.79 577.94,-1991.01 584.92,-1990.52"/>
</g>
<!-- sweat_NxN -->
<g id="node20" class="node">
<title>sweat_NxN</title>
<ellipse fill="none" stroke="black" cx="575.87" cy="-1890" rx="54.06" ry="18"/>
<text text-anchor="middle" x="575.87" y="-1884.58" font-family="Times New Roman,serif" font-size="14.00">sweat_NxN</text>
</g>
<!-- mass&#45;&gt;sweat_NxN -->
<g id="edge19" class="edge">
<title>mass&#45;&gt;sweat_NxN</title>
<path fill="none" stroke="black" d="M575.12,-1943.7C575.22,-1936.24 575.35,-1927.32 575.47,-1918.97"/>
<polygon fill="black" stroke="black" points="578.98,-1919.15 575.63,-1909.1 571.98,-1919.05 578.98,-1919.15"/>
</g>
<!-- multi -->
<g id="node21" class="node">
<title>multi</title>
<ellipse fill="none" stroke="black" cx="500.87" cy="-1818" rx="28.61" ry="18"/>
<text text-anchor="middle" x="500.87" y="-1812.58" font-family="Times New Roman,serif" font-size="14.00">multi</text>
</g>
<!-- mass&#45;&gt;multi -->
<g id="edge44" class="edge">
<title>mass&#45;&gt;multi</title>
<path fill="none" stroke="black" d="M554.06,-1948.94C540.01,-1939.63 522.35,-1925.41 512.87,-1908 502.73,-1889.38 499.98,-1865.43 499.62,-1847.06"/>
<polygon fill="black" stroke="black" points="503.13,-1847.2 499.68,-1837.18 496.13,-1847.16 503.13,-1847.2"/>
</g>
<!-- sweat_NxN&#45;&gt;multi -->
<g id="edge20" class="edge">
<title>sweat_NxN&#45;&gt;multi</title>
<path fill="none" stroke="black" d="M558.48,-1872.76C548.34,-1863.3 535.42,-1851.24 524.38,-1840.94"/>
<polygon fill="black" stroke="black" points="527.09,-1838.75 517.39,-1834.48 522.31,-1843.86 527.09,-1838.75"/>
</g>
<!-- man -->
<g id="node22" class="node">
<title>man</title>
<ellipse fill="none" stroke="black" cx="500.87" cy="-1746" rx="27" ry="18"/>
<text text-anchor="middle" x="500.87" y="-1740.58" font-family="Times New Roman,serif" font-size="14.00">man</text>
</g>
<!-- multi&#45;&gt;man -->
<g id="edge21" class="edge">
<title>multi&#45;&gt;man</title>
<path fill="none" stroke="black" d="M494.99,-1800.05C494.18,-1792.4 493.94,-1783.16 494.26,-1774.56"/>
<polygon fill="black" stroke="black" points="497.81,-1775.01 495.01,-1764.79 490.82,-1774.52 497.81,-1775.01"/>
</g>
<!-- multi&#45;&gt;man -->
<g id="edge45" class="edge">
<title>multi&#45;&gt;man</title>
<path fill="none" stroke="black" d="M506.75,-1800.05C507.56,-1792.4 507.81,-1783.16 507.48,-1774.56"/>
<polygon fill="black" stroke="black" points="510.92,-1774.52 506.73,-1764.79 503.94,-1775.01 510.92,-1774.52"/>
</g>
<!-- substance -->
<g id="node23" class="node">
<title>substance</title>
<ellipse fill="none" stroke="black" cx="500.87" cy="-1674" rx="47.57" ry="18"/>
<text text-anchor="middle" x="500.87" y="-1668.58" font-family="Times New Roman,serif" font-size="14.00">substance</text>
</g>
<!-- man&#45;&gt;substance -->
<g id="edge22" class="edge">
<title>man&#45;&gt;substance</title>
<path fill="none" stroke="black" d="M494.99,-1728.05C494.2,-1720.6 493.95,-1711.64 494.23,-1703.22"/>
<polygon fill="black" stroke="black" points="497.79,-1703.48 494.96,-1693.28 490.81,-1703.02 497.79,-1703.48"/>
</g>
<!-- man&#45;&gt;substance -->
<g id="edge46" class="edge">
<title>man&#45;&gt;substance</title>
<path fill="none" stroke="black" d="M506.75,-1728.05C507.54,-1720.6 507.79,-1711.64 507.51,-1703.22"/>
<polygon fill="black" stroke="black" points="510.94,-1703.02 506.78,-1693.28 503.95,-1703.48 510.94,-1703.02"/>
</g>
<!-- Settlement -->
<g id="node24" class="node">
<title>Settlement</title>
<ellipse fill="none" stroke="black" cx="310.87" cy="-1602" rx="49.07" ry="18"/>
<text text-anchor="middle" x="310.87" y="-1596.58" font-family="Times New Roman,serif" font-size="14.00">Settlement</text>
</g>
<!-- substance&#45;&gt;Settlement -->
<g id="edge23" class="edge">
<title>substance&#45;&gt;Settlement</title>
<path fill="none" stroke="black" d="M467.78,-1660.81C436.46,-1649.27 389.25,-1631.88 354.8,-1619.18"/>
<polygon fill="black" stroke="black" points="356.14,-1615.58 345.55,-1615.41 353.72,-1622.15 356.14,-1615.58"/>
</g>
<!-- settlement -->
<g id="node39" class="node">
<title>settlement</title>
<ellipse fill="none" stroke="black" cx="501.87" cy="-1602" rx="47.57" ry="18"/>
<text text-anchor="middle" x="501.87" y="-1596.58" font-family="Times New Roman,serif" font-size="14.00">settlement</text>
</g>
<!-- substance&#45;&gt;settlement -->
<g id="edge47" class="edge">
<title>substance&#45;&gt;settlement</title>
<path fill="none" stroke="black" d="M501.12,-1655.7C501.22,-1648.24 501.35,-1639.32 501.47,-1630.97"/>
<polygon fill="black" stroke="black" points="504.98,-1631.15 501.63,-1621.1 497.98,-1631.05 504.98,-1631.15"/>
</g>
<!-- Pong_to_Earth -->
<g id="node25" class="node">
<title>Pong_to_Earth</title>
<ellipse fill="none" stroke="black" cx="295.87" cy="-1530" rx="67.03" ry="18"/>
<text text-anchor="middle" x="295.87" y="-1524.58" font-family="Times New Roman,serif" font-size="14.00">Pong_to_Earth</text>
</g>
<!-- Settlement&#45;&gt;Pong_to_Earth -->
<g id="edge24" class="edge">
<title>Settlement&#45;&gt;Pong_to_Earth</title>
<path fill="none" stroke="black" d="M307.16,-1583.7C305.55,-1576.15 303.61,-1567.12 301.8,-1558.68"/>
<polygon fill="black" stroke="black" points="305.05,-1558.15 299.54,-1549.1 298.21,-1559.62 305.05,-1558.15"/>
</g>
<!-- Convergent_Point_NxNxNxN_coeff -->
<g id="node26" class="node">
<title>Convergent_Point_NxNxNxN_coeff</title>
<ellipse fill="none" stroke="black" cx="146.87" cy="-1386" rx="146.87" ry="18"/>
<text text-anchor="middle" x="146.87" y="-1380.58" font-family="Times New Roman,serif" font-size="14.00">Convergent_Point_NxNxNxN_coeff</text>
</g>
<!-- Pong_to_Earth&#45;&gt;Convergent_Point_NxNxNxN_coeff -->
<g id="edge25" class="edge">
<title>Pong_to_Earth&#45;&gt;Convergent_Point_NxNxNxN_coeff</title>
<path fill="none" stroke="black" d="M278.19,-1512.15C252.01,-1487.2 202.78,-1440.28 172.59,-1411.52"/>
<polygon fill="black" stroke="black" points="175.64,-1409.63 165.99,-1405.27 170.81,-1414.7 175.64,-1409.63"/>
</g>
<!-- end -->
<g id="node60" class="node">
<title>end</title>
<ellipse fill="none" stroke="black" cx="199.87" cy="-18" rx="27" ry="18"/>
<text text-anchor="middle" x="199.87" y="-12.57" font-family="Times New Roman,serif" font-size="14.00">End</text>
</g>
<!-- Convergent_Point_NxNxNxN_coeff&#45;&gt;end -->
<g id="edge71" class="edge">
<title>Convergent_Point_NxNxNxN_coeff&#45;&gt;end</title>
<path fill="none" stroke="black" d="M146.87,-1367.51C146.87,-1340.71 146.87,-1287.87 146.87,-1243 146.87,-1243 146.87,-1243 146.87,-161 146.87,-117.88 168.59,-71.78 184.22,-44.18"/>
<polygon fill="black" stroke="black" points="187.63,-46.29 189.65,-35.89 181.58,-42.76 187.63,-46.29"/>
</g>
<!-- Pyramid1 -->
<g id="node27" class="node">
<title>Pyramid1</title>
<ellipse fill="none" stroke="black" cx="663.87" cy="-3186" rx="46.07" ry="18"/>
<text text-anchor="middle" x="663.87" y="-3180.57" font-family="Times New Roman,serif" font-size="14.00">Pyramid1</text>
</g>
<!-- Pyramid2 -->
<g id="node28" class="node">
<title>Pyramid2</title>
<ellipse fill="none" stroke="black" cx="663.87" cy="-3114" rx="46.07" ry="18"/>
<text text-anchor="middle" x="663.87" y="-3108.57" font-family="Times New Roman,serif" font-size="14.00">Pyramid2</text>
</g>
<!-- Pyramid1&#45;&gt;Pyramid2 -->
<g id="edge26" class="edge">
<title>Pyramid1&#45;&gt;Pyramid2</title>
<path fill="none" stroke="black" d="M663.87,-3167.7C663.87,-3160.24 663.87,-3151.32 663.87,-3142.97"/>
<polygon fill="black" stroke="black" points="667.37,-3143.1 663.87,-3133.1 660.37,-3143.1 667.37,-3143.1"/>
</g>
<!-- Pyramid2&#45;&gt;imm -->
<g id="edge27" class="edge">
<title>Pyramid2&#45;&gt;imm</title>
<path fill="none" stroke="black" d="M668.32,-3095.7C670.26,-3088.15 672.58,-3079.12 674.75,-3070.68"/>
<polygon fill="black" stroke="black" points="678.37,-3071.66 677.47,-3061.1 671.59,-3069.92 678.37,-3071.66"/>
</g>
<!-- no_p -->
<g id="node30" class="node">
<title>no_p</title>
<ellipse fill="none" stroke="black" cx="792.87" cy="-2970" rx="30.11" ry="18"/>
<text text-anchor="middle" x="792.87" y="-2964.57" font-family="Times New Roman,serif" font-size="14.00">no_p</text>
</g>
<!-- f_inv&#45;&gt;no_p -->
<g id="edge31" class="edge">
<title>f_inv&#45;&gt;no_p</title>
<path fill="none" stroke="black" d="M792.87,-3023.7C792.87,-3016.24 792.87,-3007.32 792.87,-2998.97"/>
<polygon fill="black" stroke="black" points="796.37,-2999.1 792.87,-2989.1 789.37,-2999.1 796.37,-2999.1"/>
</g>
<!-- R -->
<g id="node31" class="node">
<title>R</title>
<ellipse fill="none" stroke="black" cx="792.87" cy="-2898" rx="27" ry="18"/>
<text text-anchor="middle" x="792.87" y="-2892.57" font-family="Times New Roman,serif" font-size="14.00">R</text>
</g>
<!-- no_p&#45;&gt;R -->
<g id="edge32" class="edge">
<title>no_p&#45;&gt;R</title>
<path fill="none" stroke="black" d="M792.87,-2951.7C792.87,-2944.24 792.87,-2935.32 792.87,-2926.97"/>
<polygon fill="black" stroke="black" points="796.37,-2927.1 792.87,-2917.1 789.37,-2927.1 796.37,-2927.1"/>
</g>
<!-- EOS -->
<g id="node32" class="node">
<title>EOS</title>
<ellipse fill="none" stroke="black" cx="794.87" cy="-2826" rx="28.61" ry="18"/>
<text text-anchor="middle" x="794.87" y="-2820.57" font-family="Times New Roman,serif" font-size="14.00">EOS</text>
</g>
<!-- R&#45;&gt;EOS -->
<g id="edge33" class="edge">
<title>R&#45;&gt;EOS</title>
<path fill="none" stroke="black" d="M793.37,-2879.7C793.58,-2872.24 793.83,-2863.32 794.07,-2854.97"/>
<polygon fill="black" stroke="black" points="797.6,-2855.2 794.38,-2845.1 790.6,-2855 797.6,-2855.2"/>
</g>
<!-- POS -->
<g id="node33" class="node">
<title>POS</title>
<ellipse fill="none" stroke="black" cx="795.87" cy="-2682" rx="28.61" ry="18"/>
<text text-anchor="middle" x="795.87" y="-2676.57" font-family="Times New Roman,serif" font-size="14.00">POS</text>
</g>
<!-- EOS&#45;&gt;POS -->
<g id="edge34" class="edge">
<title>EOS&#45;&gt;POS</title>
<path fill="none" stroke="black" d="M794.99,-2807.59C795.16,-2783.5 795.47,-2739.75 795.67,-2711.03"/>
<polygon fill="black" stroke="black" points="799.18,-2711.14 795.75,-2701.11 792.18,-2711.09 799.18,-2711.14"/>
</g>
<!-- plus1 -->
<g id="node34" class="node">
<title>plus1</title>
<ellipse fill="none" stroke="black" cx="610.87" cy="-1242" rx="30.61" ry="18"/>
<text text-anchor="middle" x="610.87" y="-1236.58" font-family="Times New Roman,serif" font-size="14.00">plus1</text>
</g>
<!-- POS&#45;&gt;plus1 -->
<g id="edge35" class="edge">
<title>POS&#45;&gt;plus1</title>
<path fill="none" stroke="black" d="M795.87,-2663.51C795.87,-2636.71 795.87,-2583.87 795.87,-2539 795.87,-2539 795.87,-2539 795.87,-1385 795.87,-1311.55 702.98,-1270.89 648.84,-1253.43"/>
<polygon fill="black" stroke="black" points="650.16,-1249.87 639.57,-1250.25 648.08,-1256.55 650.16,-1249.87"/>
</g>
<!-- minus1 -->
<g id="node35" class="node">
<title>minus1</title>
<ellipse fill="none" stroke="black" cx="610.87" cy="-1170" rx="37.09" ry="18"/>
<text text-anchor="middle" x="610.87" y="-1164.58" font-family="Times New Roman,serif" font-size="14.00">minus1</text>
</g>
<!-- plus1&#45;&gt;minus1 -->
<g id="edge36" class="edge">
<title>plus1&#45;&gt;minus1</title>
<path fill="none" stroke="black" d="M604.99,-1224.05C604.18,-1216.4 603.94,-1207.16 604.26,-1198.56"/>
<polygon fill="black" stroke="black" points="607.81,-1199.01 605.01,-1188.79 600.82,-1198.52 607.81,-1199.01"/>
</g>
<!-- plus1&#45;&gt;minus1 -->
<g id="edge53" class="edge">
<title>plus1&#45;&gt;minus1</title>
<path fill="none" stroke="black" d="M616.75,-1224.05C617.56,-1216.4 617.81,-1207.16 617.48,-1198.56"/>
<polygon fill="black" stroke="black" points="620.92,-1198.52 616.73,-1188.79 613.94,-1199.01 620.92,-1198.52"/>
</g>
<!-- e_eq_mc2 -->
<g id="node36" class="node">
<title>e_eq_mc2</title>
<ellipse fill="none" stroke="black" cx="674.87" cy="-1098" rx="49.57" ry="18"/>
<text text-anchor="middle" x="674.87" y="-1092.58" font-family="Times New Roman,serif" font-size="14.00">e_eq_mc2</text>
</g>
<!-- minus1&#45;&gt;e_eq_mc2 -->
<g id="edge37" class="edge">
<title>minus1&#45;&gt;e_eq_mc2</title>
<path fill="none" stroke="black" d="M625.39,-1153.12C633.46,-1144.29 643.67,-1133.13 652.71,-1123.24"/>
<polygon fill="black" stroke="black" points="654.8,-1126.05 658.96,-1116.31 649.63,-1121.33 654.8,-1126.05"/>
</g>
<!-- fdidt_tendon -->
<g id="node44" class="node">
<title>fdidt_tendon</title>
<ellipse fill="none" stroke="black" cx="545.87" cy="-1098" rx="58.55" ry="18"/>
<text text-anchor="middle" x="545.87" y="-1092.58" font-family="Times New Roman,serif" font-size="14.00">fdidt_tendon</text>
</g>
<!-- minus1&#45;&gt;fdidt_tendon -->
<g id="edge54" class="edge">
<title>minus1&#45;&gt;fdidt_tendon</title>
<path fill="none" stroke="black" d="M596.12,-1153.12C588.04,-1144.42 577.86,-1133.45 568.77,-1123.66"/>
<polygon fill="black" stroke="black" points="571.84,-1121.74 562.47,-1116.8 566.71,-1126.51 571.84,-1121.74"/>
</g>
<!-- prev_tdidf -->
<g id="node37" class="node">
<title>prev_tdidf</title>
<ellipse fill="none" stroke="black" cx="678.87" cy="-1026" rx="49.57" ry="18"/>
<text text-anchor="middle" x="678.87" y="-1020.58" font-family="Times New Roman,serif" font-size="14.00">prev_tdidf</text>
</g>
<!-- e_eq_mc2&#45;&gt;prev_tdidf -->
<g id="edge38" class="edge">
<title>e_eq_mc2&#45;&gt;prev_tdidf</title>
<path fill="none" stroke="black" d="M675.86,-1079.7C676.29,-1072.24 676.8,-1063.32 677.27,-1054.97"/>
<polygon fill="black" stroke="black" points="680.82,-1055.29 677.89,-1045.1 673.83,-1054.89 680.82,-1055.29"/>
</g>
<!-- eigen -->
<g id="node38" class="node">
<title>eigen</title>
<ellipse fill="none" stroke="black" cx="717.87" cy="-954" rx="29.61" ry="18"/>
<text text-anchor="middle" x="717.87" y="-948.58" font-family="Times New Roman,serif" font-size="14.00">eigen</text>
</g>
<!-- prev_tdidf&#45;&gt;eigen -->
<g id="edge39" class="edge">
<title>prev_tdidf&#45;&gt;eigen</title>
<path fill="none" stroke="black" d="M688.31,-1008.05C692.88,-999.85 698.47,-989.83 703.54,-980.71"/>
<polygon fill="black" stroke="black" points="706.98,-982.75 708.79,-972.31 700.86,-979.34 706.98,-982.75"/>
</g>
<!-- eigen&#45;&gt;hover -->
<g id="edge40" class="edge">
<title>eigen&#45;&gt;hover</title>
<path fill="none" stroke="black" d="M725.77,-971.62C737.43,-997.71 757.87,-1050.13 757.87,-1097 757.87,-2467 757.87,-2467 757.87,-2467 757.87,-2517.94 714.18,-2563.3 684.27,-2588.38"/>
<polygon fill="black" stroke="black" points="682.42,-2586.18 676.87,-2595.21 686.84,-2591.62 682.42,-2586.18"/>
</g>
<!-- su_u_bst_p_d_o -->
<g id="node40" class="node">
<title>su_u_bst_p_d_o</title>
<ellipse fill="none" stroke="black" cx="515.87" cy="-1530" rx="75.02" ry="18"/>
<text text-anchor="middle" x="515.87" y="-1524.58" font-family="Times New Roman,serif" font-size="14.00">su_u_bst_p_d_o</text>
</g>
<!-- settlement&#45;&gt;su_u_bst_p_d_o -->
<g id="edge48" class="edge">
<title>settlement&#45;&gt;su_u_bst_p_d_o</title>
<path fill="none" stroke="black" d="M505.33,-1583.7C506.84,-1576.15 508.65,-1567.12 510.33,-1558.68"/>
<polygon fill="black" stroke="black" points="513.92,-1559.6 512.45,-1549.1 507.06,-1558.22 513.92,-1559.6"/>
</g>
<!-- substance_settlement_residue_abandoned -->
<g id="node41" class="node">
<title>substance_settlement_residue_abandoned</title>
<ellipse fill="none" stroke="black" cx="518.87" cy="-1458" rx="166.83" ry="18"/>
<text text-anchor="middle" x="518.87" y="-1452.58" font-family="Times New Roman,serif" font-size="14.00">substance_settlement_residue_abandoned</text>
</g>
<!-- su_u_bst_p_d_o&#45;&gt;substance_settlement_residue_abandoned -->
<g id="edge49" class="edge">
<title>su_u_bst_p_d_o&#45;&gt;substance_settlement_residue_abandoned</title>
<path fill="none" stroke="black" d="M516.61,-1511.7C516.93,-1504.24 517.31,-1495.32 517.67,-1486.97"/>
<polygon fill="black" stroke="black" points="521.21,-1487.25 518.14,-1477.1 514.21,-1486.95 521.21,-1487.25"/>
</g>
<!-- man_multi_mass_neuro_float_hover_var_theta_eigen -->
<g id="node42" class="node">
<title>man_multi_mass_neuro_float_hover_var_theta_eigen</title>
<ellipse fill="none" stroke="black" cx="520.87" cy="-1386" rx="209.25" ry="18"/>
<text text-anchor="middle" x="520.87" y="-1380.58" font-family="Times New Roman,serif" font-size="14.00">man_multi_mass_neuro_float_hover_var_theta_eigen</text>
</g>
<!-- substance_settlement_residue_abandoned&#45;&gt;man_multi_mass_neuro_float_hover_var_theta_eigen -->
<g id="edge50" class="edge">
<title>substance_settlement_residue_abandoned&#45;&gt;man_multi_mass_neuro_float_hover_var_theta_eigen</title>
<path fill="none" stroke="black" d="M519.37,-1439.7C519.58,-1432.24 519.83,-1423.32 520.07,-1414.97"/>
<polygon fill="black" stroke="black" points="523.6,-1415.2 520.38,-1405.1 516.6,-1415 523.6,-1415.2"/>
</g>
<!-- er -->
<g id="node43" class="node">
<title>er</title>
<ellipse fill="none" stroke="black" cx="565.87" cy="-1314" rx="27" ry="18"/>
<text text-anchor="middle" x="565.87" y="-1308.58" font-family="Times New Roman,serif" font-size="14.00">er</text>
</g>
<!-- man_multi_mass_neuro_float_hover_var_theta_eigen&#45;&gt;er -->
<g id="edge51" class="edge">
<title>man_multi_mass_neuro_float_hover_var_theta_eigen&#45;&gt;er</title>
<path fill="none" stroke="black" d="M531.99,-1367.7C537.4,-1359.28 544,-1349.02 549.93,-1339.79"/>
<polygon fill="black" stroke="black" points="553.33,-1341.98 555.8,-1331.67 547.44,-1338.19 553.33,-1341.98"/>
</g>
<!-- er&#45;&gt;plus1 -->
<g id="edge52" class="edge">
<title>er&#45;&gt;plus1</title>
<path fill="none" stroke="black" d="M576.08,-1297.12C581.53,-1288.64 588.36,-1278.02 594.52,-1268.43"/>
<polygon fill="black" stroke="black" points="597.92,-1270.61 600.39,-1260.31 592.04,-1266.83 597.92,-1270.61"/>
</g>
<!-- prev2_cm_eq_e -->
<g id="node45" class="node">
<title>prev2_cm_eq_e</title>
<ellipse fill="none" stroke="black" cx="539.87" cy="-1026" rx="71.02" ry="18"/>
<text text-anchor="middle" x="539.87" y="-1020.58" font-family="Times New Roman,serif" font-size="14.00">prev2_cm_eq_e</text>
</g>
<!-- fdidt_tendon&#45;&gt;prev2_cm_eq_e -->
<g id="edge55" class="edge">
<title>fdidt_tendon&#45;&gt;prev2_cm_eq_e</title>
<path fill="none" stroke="black" d="M544.39,-1079.7C543.75,-1072.24 542.98,-1063.32 542.27,-1054.97"/>
<polygon fill="black" stroke="black" points="545.68,-1054.77 541.34,-1045.1 538.7,-1055.37 545.68,-1054.77"/>
</g>
<!-- minus01_plus01 -->
<g id="node46" class="node">
<title>minus01_plus01</title>
<ellipse fill="none" stroke="black" cx="539.87" cy="-954" rx="71.02" ry="18"/>
<text text-anchor="middle" x="539.87" y="-948.58" font-family="Times New Roman,serif" font-size="14.00">minus01_plus01</text>
</g>
<!-- prev2_cm_eq_e&#45;&gt;minus01_plus01 -->
<g id="edge56" class="edge">
<title>prev2_cm_eq_e&#45;&gt;minus01_plus01</title>
<path fill="none" stroke="black" d="M539.87,-1007.7C539.87,-1000.24 539.87,-991.32 539.87,-982.97"/>
<polygon fill="black" stroke="black" points="543.37,-983.1 539.87,-973.1 536.37,-983.1 543.37,-983.1"/>
</g>
<!-- SOP -->
<g id="node47" class="node">
<title>SOP</title>
<ellipse fill="none" stroke="black" cx="539.87" cy="-882" rx="28.61" ry="18"/>
<text text-anchor="middle" x="539.87" y="-876.58" font-family="Times New Roman,serif" font-size="14.00">SOP</text>
</g>
<!-- minus01_plus01&#45;&gt;SOP -->
<g id="edge57" class="edge">
<title>minus01_plus01&#45;&gt;SOP</title>
<path fill="none" stroke="black" d="M539.87,-935.7C539.87,-928.24 539.87,-919.32 539.87,-910.97"/>
<polygon fill="black" stroke="black" points="543.37,-911.1 539.87,-901.1 536.37,-911.1 543.37,-911.1"/>
</g>
<!-- SOE -->
<g id="node48" class="node">
<title>SOE</title>
<ellipse fill="none" stroke="black" cx="539.87" cy="-810" rx="28.61" ry="18"/>
<text text-anchor="middle" x="539.87" y="-804.58" font-family="Times New Roman,serif" font-size="14.00">SOE</text>
</g>
<!-- SOP&#45;&gt;SOE -->
<g id="edge58" class="edge">
<title>SOP&#45;&gt;SOE</title>
<path fill="none" stroke="black" d="M539.87,-863.7C539.87,-856.24 539.87,-847.32 539.87,-838.97"/>
<polygon fill="black" stroke="black" points="543.37,-839.1 539.87,-829.1 536.37,-839.1 543.37,-839.1"/>
</g>
<!-- p_on_1_minus_f_f -->
<g id="node49" class="node">
<title>p_on_1_minus_f_f</title>
<ellipse fill="none" stroke="black" cx="539.87" cy="-738" rx="82.5" ry="18"/>
<text text-anchor="middle" x="539.87" y="-732.58" font-family="Times New Roman,serif" font-size="14.00">p_on_1_minus_f_f</text>
</g>
<!-- SOE&#45;&gt;p_on_1_minus_f_f -->
<g id="edge59" class="edge">
<title>SOE&#45;&gt;p_on_1_minus_f_f</title>
<path fill="none" stroke="black" d="M539.87,-791.7C539.87,-784.24 539.87,-775.32 539.87,-766.97"/>
<polygon fill="black" stroke="black" points="543.37,-767.1 539.87,-757.1 536.37,-767.1 543.37,-767.1"/>
</g>
<!-- e_eq_mmi2 -->
<g id="node50" class="node">
<title>e_eq_mmi2</title>
<ellipse fill="none" stroke="black" cx="538.87" cy="-666" rx="54.06" ry="18"/>
<text text-anchor="middle" x="538.87" y="-660.58" font-family="Times New Roman,serif" font-size="14.00">e_eq_mmi2</text>
</g>
<!-- p_on_1_minus_f_f&#45;&gt;e_eq_mmi2 -->
<g id="edge60" class="edge">
<title>p_on_1_minus_f_f&#45;&gt;e_eq_mmi2</title>
<path fill="none" stroke="black" d="M539.62,-719.7C539.52,-712.24 539.39,-703.32 539.27,-694.97"/>
<polygon fill="black" stroke="black" points="542.76,-695.05 539.12,-685.1 535.76,-695.15 542.76,-695.05"/>
</g>
<!-- dimaryP1 -->
<g id="node51" class="node">
<title>dimaryP1</title>
<ellipse fill="none" stroke="black" cx="538.87" cy="-594" rx="46.07" ry="18"/>
<text text-anchor="middle" x="538.87" y="-588.58" font-family="Times New Roman,serif" font-size="14.00">dimaryP1</text>
</g>
<!-- e_eq_mmi2&#45;&gt;dimaryP1 -->
<g id="edge61" class="edge">
<title>e_eq_mmi2&#45;&gt;dimaryP1</title>
<path fill="none" stroke="black" d="M538.87,-647.7C538.87,-640.24 538.87,-631.32 538.87,-622.97"/>
<polygon fill="black" stroke="black" points="542.37,-623.1 538.87,-613.1 535.37,-623.1 542.37,-623.1"/>
</g>
<!-- dimaryP2 -->
<g id="node52" class="node">
<title>dimaryP2</title>
<ellipse fill="none" stroke="black" cx="538.87" cy="-522" rx="46.07" ry="18"/>
<text text-anchor="middle" x="538.87" y="-516.58" font-family="Times New Roman,serif" font-size="14.00">dimaryP2</text>
</g>
<!-- dimaryP1&#45;&gt;dimaryP2 -->
<g id="edge62" class="edge">
<title>dimaryP1&#45;&gt;dimaryP2</title>
<path fill="none" stroke="black" d="M538.87,-575.7C538.87,-568.24 538.87,-559.32 538.87,-550.97"/>
<polygon fill="black" stroke="black" points="542.37,-551.1 538.87,-541.1 535.37,-551.1 542.37,-551.1"/>
</g>
<!-- Wisdom_Tooth -->
<g id="node53" class="node">
<title>Wisdom_Tooth</title>
<ellipse fill="none" stroke="black" cx="538.87" cy="-450" rx="70.52" ry="18"/>
<text text-anchor="middle" x="538.87" y="-444.57" font-family="Times New Roman,serif" font-size="14.00">Wisdom_Tooth</text>
</g>
<!-- dimaryP2&#45;&gt;Wisdom_Tooth -->
<g id="edge63" class="edge">
<title>dimaryP2&#45;&gt;Wisdom_Tooth</title>
<path fill="none" stroke="black" d="M538.87,-503.7C538.87,-496.24 538.87,-487.32 538.87,-478.97"/>
<polygon fill="black" stroke="black" points="542.37,-479.1 538.87,-469.1 535.37,-479.1 542.37,-479.1"/>
</g>
<!-- Right_Wing -->
<g id="node54" class="node">
<title>Right_Wing</title>
<ellipse fill="none" stroke="black" cx="531.87" cy="-378" rx="55.55" ry="18"/>
<text text-anchor="middle" x="531.87" y="-372.57" font-family="Times New Roman,serif" font-size="14.00">Right_Wing</text>
</g>
<!-- Wisdom_Tooth&#45;&gt;Right_Wing -->
<g id="edge64" class="edge">
<title>Wisdom_Tooth&#45;&gt;Right_Wing</title>
<path fill="none" stroke="black" d="M537.14,-431.7C536.39,-424.24 535.5,-415.32 534.67,-406.97"/>
<polygon fill="black" stroke="black" points="538.06,-406.71 533.58,-397.1 531.09,-407.4 538.06,-406.71"/>
</g>
<!-- Left_Palm -->
<g id="node55" class="node">
<title>Left_Palm</title>
<ellipse fill="none" stroke="black" cx="529.87" cy="-306" rx="49.07" ry="18"/>
<text text-anchor="middle" x="529.87" y="-300.57" font-family="Times New Roman,serif" font-size="14.00">Left_Palm</text>
</g>
<!-- Right_Wing&#45;&gt;Left_Palm -->
<g id="edge65" class="edge">
<title>Right_Wing&#45;&gt;Left_Palm</title>
<path fill="none" stroke="black" d="M531.38,-359.7C531.16,-352.24 530.91,-343.32 530.67,-334.97"/>
<polygon fill="black" stroke="black" points="534.14,-335 530.36,-325.1 527.15,-335.2 534.14,-335"/>
</g>
<!-- Scratch -->
<g id="node56" class="node">
<title>Scratch</title>
<ellipse fill="none" stroke="black" cx="526.87" cy="-234" rx="39.09" ry="18"/>
<text text-anchor="middle" x="526.87" y="-228.57" font-family="Times New Roman,serif" font-size="14.00">Scratch</text>
</g>
<!-- Left_Palm&#45;&gt;Scratch -->
<g id="edge66" class="edge">
<title>Left_Palm&#45;&gt;Scratch</title>
<path fill="none" stroke="black" d="M529.13,-287.7C528.81,-280.24 528.43,-271.32 528.07,-262.97"/>
<polygon fill="black" stroke="black" points="531.53,-262.95 527.6,-253.1 524.54,-263.25 531.53,-262.95"/>
</g>
<!-- Right_Shoulder -->
<g id="node57" class="node">
<title>Right_Shoulder</title>
<ellipse fill="none" stroke="black" cx="526.87" cy="-162" rx="69.03" ry="18"/>
<text text-anchor="middle" x="526.87" y="-156.57" font-family="Times New Roman,serif" font-size="14.00">Right_Shoulder</text>
</g>
<!-- Scratch&#45;&gt;Right_Shoulder -->
<g id="edge67" class="edge">
<title>Scratch&#45;&gt;Right_Shoulder</title>
<path fill="none" stroke="black" d="M526.87,-215.7C526.87,-208.24 526.87,-199.32 526.87,-190.97"/>
<polygon fill="black" stroke="black" points="530.37,-191.1 526.87,-181.1 523.37,-191.1 530.37,-191.1"/>
</g>
<!-- SBTRpan -->
<g id="node58" class="node">
<title>SBTRpan</title>
<ellipse fill="none" stroke="black" cx="513.87" cy="-90" rx="48.07" ry="18"/>
<text text-anchor="middle" x="513.87" y="-84.58" font-family="Times New Roman,serif" font-size="14.00">SBTRpan</text>
</g>
<!-- Right_Shoulder&#45;&gt;SBTRpan -->
<g id="edge68" class="edge">
<title>Right_Shoulder&#45;&gt;SBTRpan</title>
<path fill="none" stroke="black" d="M523.66,-143.7C522.26,-136.15 520.58,-127.12 519.01,-118.68"/>
<polygon fill="black" stroke="black" points="522.31,-118.3 517.05,-109.1 515.43,-119.58 522.31,-118.3"/>
</g>
<!-- fofofocBTR_us_cu_sc_us_sound_barrier_sim_theory_match -->
<g id="node59" class="node">
<title>fofofocBTR_us_cu_sc_us_sound_barrier_sim_theory_match</title>
<ellipse fill="none" stroke="black" cx="513.87" cy="-18" rx="242.68" ry="18"/>
<text text-anchor="middle" x="513.87" y="-12.57" font-family="Times New Roman,serif" font-size="14.00">fofofocBTR_us_cu_sc_us_sound_barrier_sim_theory_match</text>
</g>
<!-- SBTRpan&#45;&gt;fofofocBTR_us_cu_sc_us_sound_barrier_sim_theory_match -->
<g id="edge69" class="edge">
<title>SBTRpan&#45;&gt;fofofocBTR_us_cu_sc_us_sound_barrier_sim_theory_match</title>
<path fill="none" stroke="black" d="M513.87,-71.7C513.87,-64.24 513.87,-55.32 513.87,-46.97"/>
<polygon fill="black" stroke="black" points="517.37,-47.1 513.87,-37.1 510.37,-47.1 517.37,-47.1"/>
</g>
<!-- SBTRpan&#45;&gt;end -->
<g id="edge72" class="edge">
<title>SBTRpan&#45;&gt;end</title>
<path fill="none" stroke="black" d="M471.78,-80.95C421.61,-71.18 335.31,-53.77 261.87,-36 253.08,-33.87 243.64,-31.39 234.84,-28.99"/>
<polygon fill="black" stroke="black" points="236.09,-25.42 225.52,-26.13 234.22,-32.17 236.09,-25.42"/>
</g>
</g>
</svg>
