<?xml version="1.0" encoding="UTF-8" standalone="no"?>
<!DOCTYPE svg PUBLIC "-//W3C//DTD SVG 1.1//EN"
 "http://www.w3.org/Graphics/SVG/1.1/DTD/svg11.dtd">
<!-- Generated by graphviz version 8.1.0 (20230707.0739)
 -->
<!-- Title: TeleportationProcess Pages: 1 -->
<svg width="197pt" height="404pt"
 viewBox="0.00 0.00 196.50 404.00" xmlns="http://www.w3.org/2000/svg" xmlns:xlink="http://www.w3.org/1999/xlink">
<g id="graph0" class="graph" transform="scale(1 1) rotate(0) translate(4 400)">
<title>TeleportationProcess</title>
<polygon fill="white" stroke="none" points="-4,4 -4,-400 192.5,-400 192.5,4 -4,4"/>
<!-- Calibrate -->
<g id="node1" class="node">
<title>Calibrate</title>
<polygon fill="lightblue" stroke="lightblue" points="157.75,-396 30.75,-396 30.75,-360 157.75,-360 157.75,-396"/>
<text text-anchor="middle" x="94.25" y="-372.57" font-family="Times New Roman,serif" font-size="14.00">Calibrate Teleporter</text>
</g>
<!-- SetDestination -->
<g id="node2" class="node">
<title>SetDestination</title>
<polygon fill="lightblue" stroke="lightblue" points="180.25,-324 8.25,-324 8.25,-288 180.25,-288 180.25,-324"/>
<text text-anchor="middle" x="94.25" y="-300.57" font-family="Times New Roman,serif" font-size="14.00">Set Destination Coordinates</text>
</g>
<!-- Calibrate&#45;&gt;SetDestination -->
<g id="edge1" class="edge">
<title>Calibrate&#45;&gt;SetDestination</title>
<path fill="none" stroke="black" d="M94.25,-359.7C94.25,-352.24 94.25,-343.32 94.25,-334.97"/>
<polygon fill="black" stroke="black" points="97.75,-335.1 94.25,-325.1 90.75,-335.1 97.75,-335.1"/>
</g>
<!-- EnableOverride -->
<g id="node3" class="node">
<title>EnableOverride</title>
<polygon fill="lightblue" stroke="lightblue" points="169.38,-252 19.12,-252 19.12,-216 169.38,-216 169.38,-252"/>
<text text-anchor="middle" x="94.25" y="-228.57" font-family="Times New Roman,serif" font-size="14.00">Enable Manual Override</text>
</g>
<!-- SetDestination&#45;&gt;EnableOverride -->
<g id="edge2" class="edge">
<title>SetDestination&#45;&gt;EnableOverride</title>
<path fill="none" stroke="black" d="M94.25,-287.7C94.25,-280.24 94.25,-271.32 94.25,-262.97"/>
<polygon fill="black" stroke="black" points="97.75,-263.1 94.25,-253.1 90.75,-263.1 97.75,-263.1"/>
</g>
<!-- TeleportationSequence -->
<g id="node4" class="node">
<title>TeleportationSequence</title>
<polygon fill="lightblue" stroke="lightblue" points="188.5,-180 0,-180 0,-144 188.5,-144 188.5,-180"/>
<text text-anchor="middle" x="94.25" y="-156.57" font-family="Times New Roman,serif" font-size="14.00">Initiate Teleportation Sequence</text>
</g>
<!-- EnableOverride&#45;&gt;TeleportationSequence -->
<g id="edge3" class="edge">
<title>EnableOverride&#45;&gt;TeleportationSequence</title>
<path fill="none" stroke="black" d="M94.25,-215.7C94.25,-208.24 94.25,-199.32 94.25,-190.97"/>
<polygon fill="black" stroke="black" points="97.75,-191.1 94.25,-181.1 90.75,-191.1 97.75,-191.1"/>
</g>
<!-- StateTransitions -->
<g id="node5" class="node">
<title>StateTransitions</title>
<polygon fill="lightblue" stroke="lightblue" points="173.88,-108 14.62,-108 14.62,-72 173.88,-72 173.88,-108"/>
<text text-anchor="middle" x="94.25" y="-84.58" font-family="Times New Roman,serif" font-size="14.00">Perform State Transitions</text>
</g>
<!-- TeleportationSequence&#45;&gt;StateTransitions -->
<g id="edge4" class="edge">
<title>TeleportationSequence&#45;&gt;StateTransitions</title>
<path fill="none" stroke="black" d="M94.25,-143.7C94.25,-136.24 94.25,-127.32 94.25,-118.97"/>
<polygon fill="black" stroke="black" points="97.75,-119.1 94.25,-109.1 90.75,-119.1 97.75,-119.1"/>
</g>
<!-- DisplayFinalState -->
<g id="node6" class="node">
<title>DisplayFinalState</title>
<polygon fill="lightblue" stroke="lightblue" points="154.38,-36 34.12,-36 34.12,0 154.38,0 154.38,-36"/>
<text text-anchor="middle" x="94.25" y="-12.57" font-family="Times New Roman,serif" font-size="14.00">Display Final State</text>
</g>
<!-- StateTransitions&#45;&gt;DisplayFinalState -->
<g id="edge5" class="edge">
<title>StateTransitions&#45;&gt;DisplayFinalState</title>
<path fill="none" stroke="black" d="M94.25,-71.7C94.25,-64.24 94.25,-55.32 94.25,-46.97"/>
<polygon fill="black" stroke="black" points="97.75,-47.1 94.25,-37.1 90.75,-47.1 97.75,-47.1"/>
</g>
</g>
</svg>
